<svg xmlns="http://www.w3.org/2000/svg" width="61.5" height="62.61" viewBox="0 0 61.5 62.61">
  <g id="btn_ViewHW" transform="translate(-1149.5 -132.945)">
    <g id="Group_5287" data-name="Group 5287" transform="translate(561 -446.168)">
      <path id="Subtraction_10" data-name="Subtraction 10" d="M-20325.955,491.874h-31.307a2.737,2.737,0,0,1-2.738-2.729V459.029a2.737,2.737,0,0,1,2.738-2.729,2.668,2.668,0,0,1,1.059.21v-1.589a2.739,2.739,0,0,1,2.732-2.739h1.508V443.9a.411.411,0,0,1,.006-.082v-.664A4.159,4.159,0,0,1-20347.8,439a4.159,4.159,0,0,1,4.154,4.154v.792s0,.005-.006.01v8.227h6.326a5.1,5.1,0,0,1,4.271,2.289,5.107,5.107,0,0,1,4.277-2.284h16.141a2.737,2.737,0,0,1,2.734,2.734v1.38h1.053a2.737,2.737,0,0,1,2.738,2.729v13.5a15.329,15.329,0,0,0-1.686-.6v-12.9a1.054,1.054,0,0,0-1.053-1.053h-1.053v13.5l-.258-.032c-.324-.04-.66-.069-.994-.088h-.016l-.121-.006c-.1,0-.2-.009-.293-.011V454.921a1.054,1.054,0,0,0-1.053-1.053h-16.141a3.405,3.405,0,0,0-3.424,3.3c0,.016,0,.031-.006.036v30.7a3.759,3.759,0,0,1,.8-.4c.01,0,.01-.005.01-.005a.025.025,0,0,0,.016,0h.01l.006-.005.045-.015.047-.015h.01c.006,0,.006-.005.01-.005a.052.052,0,0,0,.016,0h.01l.041-.015h.006a.019.019,0,0,1,.016-.005.019.019,0,0,0,.01-.005h.01a.052.052,0,0,0,.016,0,.045.045,0,0,1,.025-.005.033.033,0,0,1,.021-.005.068.068,0,0,1,.029-.01c.006,0,.006,0,.01,0h.012c.01,0,.01-.005.016-.005s.016,0,.02-.005h.006c.01-.005.01-.005.016-.005a.04.04,0,0,0,.025-.005h.016a.016.016,0,0,1,.014-.005.051.051,0,0,0,.016,0h.01c.006,0,.006,0,.006-.005h.01c.012,0,.021,0,.025-.005h.016a.043.043,0,0,1,.021-.005h.016s0-.005,0-.005h.01a.1.1,0,0,1,.031-.005.019.019,0,0,0,.016-.005h.01a.034.034,0,0,0,.021-.005h.025l.01-.005h.035a.04.04,0,0,1,.025-.005c.006,0,.006,0,.006-.005h.041a.019.019,0,0,1,.01-.005h.041c.006-.005.006-.005.016-.005h.041a.114.114,0,0,1,.041-.005h.016s.008,0,.01,0h.082a.084.084,0,0,1,.035-.005h3.307a14.072,14.072,0,0,0,.193,1.681h-3.465a.094.094,0,0,0-.041.005h-.045a.067.067,0,0,1-.031.005l-.006,0a.017.017,0,0,1-.01,0h-.025l-.006,0c-.006,0-.006,0-.01,0h-.02c-.006,0-.008,0-.01,0h-.031a.019.019,0,0,1-.016.005.053.053,0,0,1-.025.005.019.019,0,0,0-.016.005h-.025a2.094,2.094,0,0,0-1.477,1.2h5.529a15.935,15.935,0,0,0,.549,1.68Zm-31.307-33.9a1.054,1.054,0,0,0-1.053,1.053v30.116a1.052,1.052,0,0,0,1.053,1.047h23.184a2.08,2.08,0,0,0-1.9-1.237h-17.49a2.739,2.739,0,0,1-2.738-2.734V459.029A1.054,1.054,0,0,0-20357.262,457.976Zm3.791-4.108a1.055,1.055,0,0,0-1.057,1.053v31.3a1.055,1.055,0,0,0,1.057,1.053h17.5a3.722,3.722,0,0,1,2.074.623V457.3a.964.964,0,0,1,0-.215,3.434,3.434,0,0,0-1.064-2.289,3.418,3.418,0,0,0-2.359-.93h-6.326v17.056a.913.913,0,0,1-.057.434l-3.311,8.216a.846.846,0,0,1-.781.526.839.839,0,0,1-.783-.526l-3.311-8.2c-.012-.032-.02-.057-.031-.082l0-.005v-.026a.007.007,0,0,1-.006-.005l0-.016a1.113,1.113,0,0,1-.023-.229V453.868Zm3.6,18.017,2.07,5.12,2.068-5.12h-4.139Zm2.912-27.143h0V470.2h1.625V444.742h-1.625Zm-3.32,0h0V470.2h1.635V444.742h-1.635Zm2.479-4.057a2.46,2.46,0,0,0-1.713.695,2.417,2.417,0,0,0-.756,1.676h4.936A2.46,2.46,0,0,0-20347.8,440.685Zm21.18,42.278h-3.291a.842.842,0,0,1-.844-.838.845.845,0,0,1,.844-.843h3.781a14.9,14.9,0,0,0-.49,1.68Zm1.977-4.706h-5.268a.845.845,0,0,1-.844-.843.845.845,0,0,1,.844-.843h6.529a15.22,15.22,0,0,0-1.262,1.686Zm4.8-4.711h-10.07a.845.845,0,0,1-.844-.843.845.845,0,0,1,.844-.843h13.969a14.993,14.993,0,0,0-3.9,1.686Zm6.8-4.711h-16.867a.845.845,0,0,1-.844-.843.842.842,0,0,1,.844-.838h16.867a.842.842,0,0,1,.842.838A.844.844,0,0,1-20313.047,468.834Zm-2.529-4.711h-14.338a.842.842,0,0,1-.844-.838.845.845,0,0,1,.844-.843h14.338a.844.844,0,0,1,.842.843A.842.842,0,0,1-20315.576,464.123Zm2.529-4.706h-16.867a.845.845,0,0,1-.844-.843.842.842,0,0,1,.844-.838h16.867a.842.842,0,0,1,.842.838A.844.844,0,0,1-20313.047,459.417Z" transform="translate(20949 140.614)" fill="#7b9aae" stroke="rgba(0,0,0,0)" stroke-width="1"/>
    </g>
    <g id="Group_5333" data-name="Group 5333" transform="translate(560 -701.168)">
      <path id="Subtraction_6" data-name="Subtraction 6" d="M-20452.881,489.724a14.875,14.875,0,0,1-2.557-.737,14.88,14.88,0,0,1-4.377-2.644,14.957,14.957,0,0,0,4.3,2.612,14.971,14.971,0,0,0,2.629.768Zm8.188-.689v0a15.04,15.04,0,0,0,2.25-1.072A14.855,14.855,0,0,1-20444.693,489.035ZM-20450,488a12.919,12.919,0,0,1-9.193-3.806A12.915,12.915,0,0,1-20463,475a12.916,12.916,0,0,1,3.807-9.194A12.919,12.919,0,0,1-20450,462a12.94,12.94,0,0,1,9.193,3.806A12.913,12.913,0,0,1-20437,475a12.913,12.913,0,0,1-3.8,9.194A12.939,12.939,0,0,1-20450,488Zm.01-18.238c-.277,0-.582.014-.9.041a9.48,9.48,0,0,0-3.369,1,12.207,12.207,0,0,0-3.939,3.256c-.125.157-.236.33-.338.483l-.021.031-.047.072c-.047.077-.094.148-.143.216v.277c.006.009.01.019.016.028l.006.015a.534.534,0,0,0,.035.065l0,.015a.367.367,0,0,0,.02.041l0,.006a.591.591,0,0,0,.074.127,12.988,12.988,0,0,0,3.7,3.41,9.448,9.448,0,0,0,4.869,1.392,8.729,8.729,0,0,0,.895-.046,9.351,9.351,0,0,0,3.971-1.32,12.952,12.952,0,0,0,3.738-3.421.7.7,0,0,0-.006-.9,13.321,13.321,0,0,0-3.174-3.066A9.568,9.568,0,0,0-20449.988,469.763Zm-11.873,14.422a14.753,14.753,0,0,1-2.1-3.667,14.873,14.873,0,0,1-1.033-4.924,15.01,15.01,0,0,0,.9,4.542,15.006,15.006,0,0,0,2.232,4.047Zm11.9-5.491h-.057a3.694,3.694,0,0,1-3.656-3.6,3.764,3.764,0,0,1,1.037-2.676,3.678,3.678,0,0,1,2.615-1.12h.051a3.7,3.7,0,0,1,3.646,3.6A3.692,3.692,0,0,1-20449.963,478.694Zm-.016-5.686a2,2,0,0,0-2,1.972,2.035,2.035,0,0,0,.57,1.418,1.917,1.917,0,0,0,1.387.591h.01a1.994,1.994,0,0,0,1.992-1.983,1.98,1.98,0,0,0-.57-1.4,1.93,1.93,0,0,0-1.375-.6Zm-14.451-2.134h0a14.773,14.773,0,0,1,2.619-5.123A14.9,14.9,0,0,0-20464.43,470.875Zm24.963-6.551a15.266,15.266,0,0,0-9.1-4.257,14.833,14.833,0,0,1,4.906,1.331,14.991,14.991,0,0,1,4.193,2.924Zm-16.855-2.931v0a14.805,14.805,0,0,1,2.059-.779A15.126,15.126,0,0,0-20456.322,461.393Z" transform="translate(21088 406.999)" fill="#7b9aae"/>
    </g>
  </g>
</svg>
