<svg xmlns="http://www.w3.org/2000/svg" width="63.5" height="56.684" viewBox="0 0 63.5 56.684">
  <g id="btn_AddHW" transform="translate(-1046.5 -255.408)">
    <g id="Group_5336" data-name="Group 5336" transform="translate(1028 234.347)">
      <path id="Subtraction_11" data-name="Subtraction 11" d="M-20898.662-180.343h-33.6a2.741,2.741,0,0,1-2.736-2.737v-30.105a2.741,2.741,0,0,1,2.736-2.737,2.727,2.727,0,0,1,1.057.21V-217.3a2.741,2.741,0,0,1,2.738-2.737h1.508v-8.286a.535.535,0,0,1,0-.079v-.662a4.159,4.159,0,0,1,4.15-4.156,4.161,4.161,0,0,1,4.156,4.156v.741a.687.687,0,0,1,0,.089v8.2h6.324a5.112,5.112,0,0,1,4.277,2.286,5.087,5.087,0,0,1,4.271-2.28h16.141a2.741,2.741,0,0,1,2.736,2.737v1.371h1.051a2.741,2.741,0,0,1,2.738,2.737v9.6a14.982,14.982,0,0,0-1.682-.6v-9a1.057,1.057,0,0,0-1.057-1.056h-1.051v9.608a15.169,15.169,0,0,0-1.68-.14v-12.521a1.057,1.057,0,0,0-1.057-1.056h-16.141a3.4,3.4,0,0,0-3.426,3.3v.032a.061.061,0,0,0-.006.032v30.668a3.559,3.559,0,0,1,.811-.4l0-.005a.067.067,0,0,0,.027-.008.789.789,0,0,1,.094-.029.02.02,0,0,1,.012-.005.048.048,0,0,1,.01,0h.006a.023.023,0,0,0,.01,0h.012l.023-.008.023-.008a.021.021,0,0,0,.016-.005.036.036,0,0,0,.021-.005h0l.006,0c.006,0,.006,0,.01,0a.039.039,0,0,0,.014,0l.012,0h.008a.03.03,0,0,1,.014,0,.039.039,0,0,1,.025-.005l.014-.005.014-.005a.02.02,0,0,0,.016-.005h.006a.038.038,0,0,0,.02-.005h.016a.075.075,0,0,1,.02-.005l.018-.005h.016a.035.035,0,0,1,.014-.006l.014,0h.016a.045.045,0,0,1,.025-.005l.006,0,.01,0,.02,0h.006l.012,0a.019.019,0,0,0,.016-.005h.027a.017.017,0,0,1,.016-.005l.014,0,.018,0h.01a.121.121,0,0,1,.043-.005c0-.005,0-.005.01-.005h.031a.021.021,0,0,1,.016-.005.062.062,0,0,0,.031-.005h.012a.11.11,0,0,0,.041-.005h.043a.013.013,0,0,0,.008,0l.008,0h.041a.126.126,0,0,1,.043-.005h.047s.006-.005.012-.005h4.109a15.055,15.055,0,0,0,.689,1.681h-4.689a.1.1,0,0,0-.021,0l-.016,0h-.041a.086.086,0,0,0-.037.005h-.01a.074.074,0,0,0-.033.005h-.035l-.006.005h-.037l0,.006h-.008a.079.079,0,0,0-.027,0,.08.08,0,0,0-.037.005l-.016,0h-.006a.081.081,0,0,1-.02,0,2.122,2.122,0,0,0-1.482,1.2h7.2a15.47,15.47,0,0,0,1.18,1.68Zm-33.6-33.9a1.054,1.054,0,0,0-1.051,1.056v30.105a1.054,1.054,0,0,0,1.051,1.056h23.188a2.088,2.088,0,0,0-1.9-1.24h-17.5a2.741,2.741,0,0,1-2.738-2.737v-27.184A1.054,1.054,0,0,0-20932.264-214.242Zm3.795-4.109a1.054,1.054,0,0,0-1.057,1.051V-186a1.054,1.054,0,0,0,1.057,1.051h17.494a3.773,3.773,0,0,1,2.076.625V-214.92a.816.816,0,0,1-.006-.215,3.417,3.417,0,0,0-3.426-3.215h-6.324V-201.3a.85.85,0,0,1-.053.436l-3.316,8.212a.843.843,0,0,1-.783.525.831.831,0,0,1-.777-.525l-3.314-8.2a.478.478,0,0,1-.021-.054c0-.01-.006-.02-.01-.03l0-.006c0-.006,0-.01-.008-.01v-.016a.728.728,0,0,1-.025-.242v-17.144Zm3.6,18.016,2.064,5.123,2.07-5.123h-4.135Zm2.906-27.143h0v25.461h1.629v-25.461h-1.629Zm-3.316,0h0v25.461h1.635v-25.461h-1.635Zm2.475-4.056a2.465,2.465,0,0,0-2.469,2.37h4.939A2.464,2.464,0,0,0-20922.807-231.533Zm20.816,42.274h-2.926a.841.841,0,0,1-.84-.841.841.841,0,0,1,.84-.841h2.961c-.029.388-.045.779-.045,1.161,0,.138,0,.293.01.519Zm.582-4.708h-3.508a.841.841,0,0,1-.84-.841.841.841,0,0,1,.84-.841h4.107a15.078,15.078,0,0,0-.6,1.681Zm2.328-4.708h-5.836a.841.841,0,0,1-.84-.841.844.844,0,0,1,.84-.846h7.283a15.4,15.4,0,0,0-1.447,1.686Zm5.748-4.708h-11.584a.844.844,0,0,1-.84-.846.841.841,0,0,1,.84-.841h16.871a.838.838,0,0,1,.637.295,14.883,14.883,0,0,0-5.924,1.392Zm2.76-4.713h-14.344a.841.841,0,0,1-.84-.841.841.841,0,0,1,.84-.841h14.344a.841.841,0,0,1,.84.841A.841.841,0,0,1-20890.572-208.095Zm2.527-4.708h-16.871a.841.841,0,0,1-.84-.841.841.841,0,0,1,.84-.841h16.871a.841.841,0,0,1,.84.841A.841.841,0,0,1-20888.045-212.8Z" transform="translate(20954 254.781)" fill="#a4a9be" stroke="rgba(0,0,0,0)" stroke-width="1"/>
    </g>
    <path id="Subtraction_14" data-name="Subtraction 14" d="M-19887,28a12.928,12.928,0,0,1-9.191-3.806,12.917,12.917,0,0,1-3.8-9.2,12.894,12.894,0,0,1,3.8-9.19A12.913,12.913,0,0,1-19887,2a12.918,12.918,0,0,1,9.2,3.811A12.894,12.894,0,0,1-19874,15a12.917,12.917,0,0,1-3.8,9.2A12.934,12.934,0,0,1-19887,28Zm-4.641-14.515c-1.033,0-1.848,0-2.6.005a2.78,2.78,0,0,0-.789.095,1.482,1.482,0,0,0-1.01,1.6,1.487,1.487,0,0,0,1.484,1.319c.809,0,1.7,0,2.816,0h3.227v5.879a1.523,1.523,0,0,0,1.5,1.663h.016a1.529,1.529,0,0,0,1.518-1.678V16.508h3.223c1.094,0,1.957,0,2.756,0a1.55,1.55,0,0,0,1.289-.644,1.468,1.468,0,0,0,.18-1.359,1.56,1.56,0,0,0-1.623-1.014h-5.824V10.315l0-.341c0-.8,0-1.621-.012-2.436a1.513,1.513,0,0,0-1.488-1.583,1.631,1.631,0,0,0-.379.045,1.536,1.536,0,0,0-1.154,1.593c-.006.843,0,1.725,0,2.5v3.391h-3.127Zm19.455-.875a15,15,0,0,0-.916-3.277,15.037,15.037,0,0,0-2.541-4.136,14.882,14.882,0,0,1,3.461,7.413Zm-29.117-2.152h0a14.813,14.813,0,0,1,2.828-5.119A14.936,14.936,0,0,0-19901.3,10.459Zm23.611-7.223a14.946,14.946,0,0,0-8.27-3.2,14.91,14.91,0,0,1,4.471,1,14.823,14.823,0,0,1,3.8,2.2Zm-18.238-.289v0A14.823,14.823,0,0,1-19888.6.083a14.937,14.937,0,0,0-3.9.956A14.951,14.951,0,0,0-19895.932,2.948Z" transform="translate(20982.184 284.092)" fill="#a4a9be"/>
  </g>
</svg>
