<svg xmlns="http://www.w3.org/2000/svg" width="62.5" height="61.604" viewBox="0 0 62.5 61.604">
  <g id="btn_ViewSubjects" transform="translate(-588.5 -835.119)">
    <path id="Subtraction_3" data-name="Subtraction 3" d="M-20434.646,514.965h-6.014c-.111-.077-.221-.157-.318-.227l-.043-.031c-.205-.146-.416-.3-.631-.435a.807.807,0,0,0-.271-.1l-.047-.011c-.172-.042-.354-.071-.527-.1l-.012,0a3.2,3.2,0,0,1-1.037-.285c-3.807-2.123-7.672-4.3-11.408-6.4l-.2-.112-.393-.221c-2.705-1.52-5.5-3.093-8.252-4.632a2.145,2.145,0,0,1-1.186-2.044l0-3.128c.01-9.851.021-20.038-.018-30.158a2.2,2.2,0,0,1,.625-1.586,1.872,1.872,0,0,1,1.33-.566,1.944,1.944,0,0,1,1.111.364,1.041,1.041,0,0,0,.188.1l.023.01.029.014c.266-.258.531-.512.779-.747l.037-.036c.527-.5,1.072-1.026,1.582-1.559a1.236,1.236,0,0,1,.916-.443,1.551,1.551,0,0,1,.477.083c.947.305,1.885.594,2.793.873l1.15.354V461.17c0-.787.238-1.154.738-1.154a2,2,0,0,1,.721.173,29.859,29.859,0,0,1,7.076,4,24.183,24.183,0,0,1,5.492,5.976,24.633,24.633,0,0,1,1.438,2.688l.037.074c.188.387.381.786.58,1.173.039.076.072.154.109.244l.021.051c.027.068.057.138.09.214.018-.036.033-.069.049-.1l.031-.063.025-.053c.033-.069.059-.123.08-.18a22.884,22.884,0,0,1,4.127-6.78,25.593,25.593,0,0,1,6.123-5.028,39.97,39.97,0,0,1,3.795-1.918l.018-.008.646-.3a1.68,1.68,0,0,1,.68-.183c.486,0,.732.39.732,1.158,0,.556,0,1.161,0,1.851,0,.156,0,.312,0,.469v.475c.393-.122.779-.241,1.164-.358l.066-.021c.9-.275,1.746-.535,2.6-.823a1.693,1.693,0,0,1,.559-.1,1.422,1.422,0,0,1,1.059.541c.5.545,1.023,1.039,1.572,1.561.232.22.473.447.709.678l.109-.059.018-.009c.135-.073.287-.155.443-.225a1.93,1.93,0,0,1,.832-.191,1.888,1.888,0,0,1,1.869,1.706,5.885,5.885,0,0,1,.02.591c.006,7.817.006,15.77.006,23.461,0,.139,0,.282-.01.426a.818.818,0,0,1-.787.847h-.02a.814.814,0,0,1-.791-.827c-.012-.142-.01-.285-.008-.423,0-.027,0-.054,0-.081V467.4c0-.138,0-.25,0-.353-.014-.355-.082-.494-.236-.494a.894.894,0,0,0-.387.144l-4.441,2.5-2.055,1.157-3.561,2-.051.029-.121.068c-3.186,1.794-6.482,3.649-9.734,5.456a1.219,1.219,0,0,0-.729,1.253c.018,9.266.018,18.684.018,27.792l0,4.637v.143c0,.092-.006.187,0,.283.008.4.074.553.24.553a.969.969,0,0,0,.422-.162l.242-.135,2.092-1.17a15.352,15.352,0,0,0,.594,1.514l-.961.54-.961.54-.021.012a2.913,2.913,0,0,1-1.4.5,1.563,1.563,0,0,1-.395-.052.16.16,0,0,0-.033,0,.4.4,0,0,0-.2.075c-.275.194-.551.391-.76.542l-.268.193Zm-5.809-3.724h0c0,.163,0,.323,0,.481-.008.469-.01.86.021,1.26a.541.541,0,0,0,.387.354c.83.013,1.688.02,2.545.02.742,0,1.508-.005,2.277-.015a.521.521,0,0,0,.359-.334c.025-.424.023-.841.02-1.283l0-.01c0-.157,0-.315,0-.474h-5.6Zm-22.682-44.688c-.154,0-.219.148-.23.529v.216c0,10.764,0,21.895-.016,32.845a1.006,1.006,0,0,0,.6,1c5.934,3.323,11.961,6.717,17.789,10l.291.164,1.873,1.054a1.245,1.245,0,0,0,.52.2.2.2,0,0,0,.2-.159,1.735,1.735,0,0,0,.049-.5c0-5.383,0-10.95.006-16.42v-2.06c0-.687,0-1.373,0-2.06,0-4.043,0-8.224.012-12.361a1,1,0,0,0-.586-1.012c-4.572-2.559-9.166-5.143-14.264-8.013l-3.213-1.807c-.885-.5-1.75-.985-2.621-1.469A.9.9,0,0,0-20463.137,466.553Zm22.7,41.134h0v1.88h5.547v-1.88h-5.547Zm.012-21.69h0v20.015h5.535V486h-5.535Zm0-3.549h0v1.9h5.537v-1.9h-5.537Zm2.773-3.785c-.8,0-1.621.005-2.43.015a.5.5,0,0,0-.359.329c-.029.428-.027.849-.023,1.294l0,.008c0,.153,0,.308,0,.464h5.6v-.235c0-.08,0-.159,0-.237a12.681,12.681,0,0,0-.023-1.27.523.523,0,0,0-.385-.349C-20435.973,478.67-20436.754,478.663-20437.646,478.663Zm20.385-14.283a.938.938,0,0,0-.312.062c-.639.242-1.3.475-1.932.7l-.1.036-.01,0c-1.184.419-2.408.852-3.574,1.36a31.612,31.612,0,0,0-11,7.684c-.52.575-.988,1.178-1.486,1.816l-.025.032c-.2.256-.447.575-.691.879a4.544,4.544,0,0,0,.986.113,5.173,5.173,0,0,0,2.625-.822c3.334-1.908,6.742-3.819,10.037-5.668l.277-.155.467-.263c1.322-.741,2.688-1.507,4.025-2.26,1.02-.57,2.055-1.161,2.943-1.669-.148-.137-.295-.269-.437-.4l-.055-.051c-.393-.354-.8-.721-1.166-1.1A.762.762,0,0,0-20417.262,464.38Zm-40.852.005a.32.32,0,0,0-.215.057c-.49.427-.955.877-1.447,1.353l-.459.444.229.137.076.047c.125.076.221.134.322.192q2.1,1.184,4.211,2.365l.123.069c4.357,2.445,8.861,4.973,13.277,7.494a4.092,4.092,0,0,0,2.139.51c.311,0,.623-.019.887-.038-.043-.071-.074-.126-.1-.173l-.008-.012a1.447,1.447,0,0,0-.141-.221c-.246-.292-.492-.6-.73-.888l-.135-.165-.016-.017c-.654-.808-1.332-1.644-2.072-2.391a26.65,26.65,0,0,0-2.006-1.756c-.4-.328-.859-.7-1.287-1.079a1.078,1.078,0,0,1-.344-.806.891.891,0,0,1,.549-.621.516.516,0,0,1,.152-.021,1.169,1.169,0,0,1,.664.242c1.021.817,2.008,1.636,3.051,2.5l.141.117.814.677a24.3,24.3,0,0,0-11.91-10.406c0,.242,0,.48,0,.691.006.541.008,1.028-.014,1.508a.6.6,0,0,0,.451.663c.912.4,1.818.852,2.615,1.248.574.287.756.684.523,1.15a.7.7,0,0,1-.646.443,1.5,1.5,0,0,1-.633-.176c-.107-.051-.221-.108-.334-.164a41.834,41.834,0,0,0-7.365-2.912A1.421,1.421,0,0,0-20458.113,464.385Zm35.152-2.388h0c-5.479,2.439-9.357,5.853-11.854,10.436.293-.256.588-.521.875-.777l.039-.034.02-.018c.648-.578,1.316-1.176,2-1.724a37.98,37.98,0,0,1,8.455-5.028c.176-.075.434-.27.441-.426.033-.532.029-1.067.025-1.633l0-.095c0-.228,0-.461,0-.7Zm-14.689,39.645h-.006c-.539,0-.8-.4-.8-1.212v-5.19c0-.247,0-.495,0-.742,0-1.1,0-2.075,0-2.969,0-.043,0-.089-.006-.135v-.011a.663.663,0,0,1,.066-.424c.2-.232.488-.539.74-.539s.543.29.744.534a.734.734,0,0,1,.068.463v.01c0,.019,0,.038,0,.056s0,.066,0,.1c0,2.933,0,5.911,0,8.849C-20436.85,501.246-20437.111,501.642-20437.65,501.642Zm7.508-12.321c-.463,0-.752-.38-.754-.991,0-.485,0-1.011,0-1.608,0-.134,0-.268,0-.4v-.4c0-.233,0-.466,0-.7,0-.5.008-1.088-.008-1.659a1.011,1.011,0,0,1,.561-1.007c2.953-1.684,5.961-3.4,8.869-5.063l.828-.473.871-.5,4.182-2.389a1.149,1.149,0,0,1,.563-.165c.459,0,.762.357.768.909.012,1.2.01,2.4.008,3.566,0,.228,0,.457,0,.685v.685a.972.972,0,0,1-.545.909l-2.217,1.267c-4.514,2.581-8.729,4.988-12.529,7.156A1.216,1.216,0,0,1-20430.143,489.321Zm14.275-13.107h0l-.053.007-.016,0a.21.21,0,0,0-.076.016l-.953.543-.91.519c-3.664,2.088-7.451,4.247-11.166,6.375a.543.543,0,0,0-.236.37c-.012.682-.012,1.355-.012,2.068l0,.308v.685c.082-.042.154-.077.221-.109.086-.042.174-.085.256-.132.439-.248.932-.527,1.547-.88l.041-.024.738-.421.871-.5,1.143-.651q4.187-2.389,8.178-4.68c.158-.089.4-.3.41-.473.025-.722.023-1.43.02-2.18l0-.016c0-.274,0-.551,0-.83Z" transform="translate(21054 375.617)" fill="#b2c4d1" stroke="rgba(0,0,0,0)" stroke-width="1"/>
    <g id="Group_5330" data-name="Group 5330">
      <path id="Subtraction_6" data-name="Subtraction 6" d="M-20452.881,489.724a14.875,14.875,0,0,1-2.557-.737,14.88,14.88,0,0,1-4.377-2.644,14.957,14.957,0,0,0,4.3,2.612,14.971,14.971,0,0,0,2.629.768Zm8.188-.689v0a15.04,15.04,0,0,0,2.25-1.072A14.855,14.855,0,0,1-20444.693,489.035ZM-20450,488a12.919,12.919,0,0,1-9.193-3.806A12.915,12.915,0,0,1-20463,475a12.916,12.916,0,0,1,3.807-9.194A12.919,12.919,0,0,1-20450,462a12.94,12.94,0,0,1,9.193,3.806A12.913,12.913,0,0,1-20437,475a12.913,12.913,0,0,1-3.8,9.194A12.939,12.939,0,0,1-20450,488Zm.01-18.238c-.277,0-.582.014-.9.041a9.48,9.48,0,0,0-3.369,1,12.207,12.207,0,0,0-3.939,3.256c-.125.157-.236.33-.338.483l-.021.031-.047.072c-.047.077-.094.148-.143.216v.277c.006.009.01.019.016.028l.006.015a.534.534,0,0,0,.035.065l0,.015a.367.367,0,0,0,.02.041l0,.006a.591.591,0,0,0,.074.127,12.988,12.988,0,0,0,3.7,3.41,9.448,9.448,0,0,0,4.869,1.392,8.729,8.729,0,0,0,.895-.046,9.351,9.351,0,0,0,3.971-1.32,12.952,12.952,0,0,0,3.738-3.421.7.7,0,0,0-.006-.9,13.321,13.321,0,0,0-3.174-3.066A9.568,9.568,0,0,0-20449.988,469.763Zm-11.873,14.422a14.753,14.753,0,0,1-2.1-3.667,14.873,14.873,0,0,1-1.033-4.924,15.01,15.01,0,0,0,.9,4.542,15.006,15.006,0,0,0,2.232,4.047Zm11.9-5.491h-.057a3.694,3.694,0,0,1-3.656-3.6,3.764,3.764,0,0,1,1.037-2.676,3.678,3.678,0,0,1,2.615-1.12h.051a3.7,3.7,0,0,1,3.646,3.6A3.692,3.692,0,0,1-20449.963,478.694Zm-.016-5.686a2,2,0,0,0-2,1.972,2.035,2.035,0,0,0,.57,1.418,1.917,1.917,0,0,0,1.387.591h.01a1.994,1.994,0,0,0,1.992-1.983,1.98,1.98,0,0,0-.57-1.4,1.93,1.93,0,0,0-1.375-.6Zm-14.451-2.134h0a14.773,14.773,0,0,1,2.619-5.123A14.9,14.9,0,0,0-20464.43,470.875Zm24.963-6.551a15.266,15.266,0,0,0-9.1-4.257,14.833,14.833,0,0,1,4.906,1.331,14.991,14.991,0,0,1,4.193,2.924Zm-16.855-2.931v0a14.805,14.805,0,0,1,2.059-.779A15.126,15.126,0,0,0-20456.322,461.393Z" transform="translate(21088 406.999)" fill="#b7c8d5"/>
    </g>
  </g>
</svg>
