<svg xmlns="http://www.w3.org/2000/svg" width="54" height="54" viewBox="0 0 54 54">
  <g id="icon_view" transform="translate(-566 -463)">
    <g id="Ellipse_439" data-name="Ellipse 439" transform="translate(566 463)" fill="none" stroke="#a7bbc8" stroke-width="2">
      <circle cx="27" cy="27" r="27" stroke="none"/>
      <circle cx="27" cy="27" r="26" fill="none"/>
    </g>
    <g id="Group_5270" data-name="Group 5270" transform="translate(577.254 480.143)">
      <path id="Path_6" data-name="Path 6" d="M0,9.181c.327-.481.621-.99.988-1.439A22.145,22.145,0,0,1,8.079,1.875a16.761,16.761,0,0,1,6.058-1.8A16.949,16.949,0,0,1,25.476,3.1,24.006,24.006,0,0,1,31.19,8.619a1.248,1.248,0,0,1,0,1.622,23.457,23.457,0,0,1-6.73,6.161,17.085,17.085,0,0,1-7.138,2.377A16.739,16.739,0,0,1,6.95,16.356,23.358,23.358,0,0,1,.284,10.215,3.681,3.681,0,0,1,0,9.676V9.181m15.809,6.9A6.653,6.653,0,1,0,9.128,9.6a6.65,6.65,0,0,0,6.682,6.477" transform="translate(0 0)" fill="#a7bbc8"/>
      <path id="Path_7" data-name="Path 7" d="M158.559,75.776a3.564,3.564,0,1,1-3.506-3.6,3.568,3.568,0,0,1,3.506,3.6" transform="translate(-139.25 -66.338)" fill="#a7bbc8"/>
    </g>
  </g>
</svg>
