<svg xmlns="http://www.w3.org/2000/svg" width="54" height="54" viewBox="0 0 54 54">
  <g id="icon_add" transform="translate(-605 -428)">
    <g id="Ellipse_438" data-name="Ellipse 438" transform="translate(605 428)" fill="none" stroke="#a6bbc7" stroke-width="2">
      <circle cx="27" cy="27" r="27" stroke="none"/>
      <circle cx="27" cy="27" r="26" fill="none"/>
    </g>
    <g id="Group_5285" data-name="Group 5285" transform="translate(617.87 442.105)">
      <g id="Group_5286" data-name="Group 5286">
        <path id="Path_31" data-name="Path 31" d="M16.494,15.045V20.48c0,.976.005,1.952,0,2.928A2.265,2.265,0,0,1,14.11,25.79a2.255,2.255,0,0,1-2.344-2.363c-.008-2.765,0-5.53,0-8.383h-.643c-2.929,0-5.857.01-8.786-.008A2.255,2.255,0,0,1,.02,13.161,2.113,2.113,0,0,1,1.6,10.881a4.7,4.7,0,0,1,1.228-.139c2.711-.012,5.422-.006,8.133-.006h.807v-.6c0-2.6-.006-5.205,0-7.808A2.212,2.212,0,0,1,13.561.066a2.3,2.3,0,0,1,2.926,2.192c.022,2.313.006,4.627.006,6.94v1.537h.725q4.185,0,8.37,0a2.451,2.451,0,0,1,2.529,1.443,2.18,2.18,0,0,1-2.293,2.859c-2.869.016-5.738,0-8.608,0h-.724" transform="translate(0 0)" fill="#a6bbc7"/>
      </g>
    </g>
  </g>
</svg>
